# xmcd CD database file
#
# Track frame offsets:
#	150
#	4850
#	35478
#	61785
#	87796
#	108185
#	141390
#	155170
#	181008
#	201075
#	224261
#	237266
#	264334
#
# Disc length: 3719 seconds
#
# Revision: 0
# Processed by: cddbd v1.5.2PL0 Copyright (c) Steve Scherf et al.
# Submitted via: CDex 1.70beta2
#
DISCID=ab0e850d
DTITLE=Ari Erev - About Time
DYEAR=2008
DGENRE=Jazz
TTITLE0=Prelude - Anticipation (Short)
TTITLE1=Fading Memories
TTITLE2=Song With No Name
TTITLE3=Luigi's Muse
TTITLE4=These Foolish Things (Remind Me of You)
TTITLE5=The Two Lonely People
TTITLE6=Interlude - Anticipation
TTITLE7=Waltz In G
TTITLE8=It Could Happen To You
TTITLE9=Past Desire
TTITLE10=I Remember You
TTITLE11=The Policeman Ballad (Theme From Policeman Azulay)
TTITLE12=Postlude - Turn Out the Stars
EXTD=YEAR: 2008
EXTT0=
EXTT1=
EXTT2=
EXTT3=
EXTT4=
EXTT5=
EXTT6=
EXTT7=
EXTT8=
EXTT9=
EXTT10=
EXTT11=
EXTT12=
PLAYORDER=
